<?xml version="1.0" encoding="UTF-8" standalone="no" ?>
<!DOCTYPE svg PUBLIC "-//W3C//DTD SVG 1.1//EN" "http://www.w3.org/Graphics/SVG/1.1/DTD/svg11.dtd">
<svg xmlns="http://www.w3.org/2000/svg" xmlns:xlink="http://www.w3.org/1999/xlink" version="1.1" width="269.99999999999983" height="269.99999999999983" viewBox="0 0 100 100" xml:space="preserve">
<desc>Created with Fabric.js 6.5.3</desc>
<defs>
</defs>
<g transform="matrix(0.0629 0 0 0.0629 75.901 24.0343)"  >
<path style="stroke: none; stroke-width: 1; stroke-dasharray: none; stroke-linecap: butt; stroke-dashoffset: 0; stroke-linejoin: miter; stroke-miterlimit: 4; fill: rgb(31,31,31); fill-rule: nonzero; opacity: 1;"  transform=" translate(-475, 475)" d="M 730 -160 Q 730 -278.17 685 -382.09 Q 640 -486 563 -563 Q 486 -640 382.09 -685 Q 278.17 -730 160 -730 L 160 -790 Q 291 -790 405.44 -740.39 Q 519.87 -690.79 605.33 -605.33 Q 690.79 -519.87 740.39 -405.44 Q 790 -291 790 -160 L 730 -160 Z" stroke-linecap="round" />
</g>
<g transform="matrix(-0.0634 0 0 -0.0634 23.6708 76.3391)"  >
<path style="stroke: none; stroke-width: 1; stroke-dasharray: none; stroke-linecap: butt; stroke-dashoffset: 0; stroke-linejoin: miter; stroke-miterlimit: 4; fill: rgb(31,31,31); fill-rule: nonzero; opacity: 1;"  transform=" translate(-475, 475)" d="M 730 -160 Q 730 -278.17 685 -382.09 Q 640 -486 563 -563 Q 486 -640 382.09 -685 Q 278.17 -730 160 -730 L 160 -790 Q 291 -790 405.44 -740.39 Q 519.87 -690.79 605.33 -605.33 Q 690.79 -519.87 740.39 -405.44 Q 790 -291 790 -160 L 730 -160 Z" stroke-linecap="round" />
</g>
<g transform="matrix(0.0576 0 0 0.0576 75.5965 76.1207)"  >
<path style="stroke: none; stroke-width: 1; stroke-dasharray: none; stroke-linecap: butt; stroke-dashoffset: 0; stroke-linejoin: miter; stroke-miterlimit: 4; fill: rgb(31,31,31); fill-rule: nonzero; opacity: 1;"  transform=" translate(-480, 480)" d="M 658 -648 L 658 -780 L 302 -780 L 302 -648 L 242 -648 L 242 -840 L 718 -840 L 718 -648 L 658 -648 Z M 140 -588 L 820 -588 L 140 -588 Z M 739 -493 Q 751 -493 760 -502 Q 769 -511 769 -523 Q 769 -535 760 -544 Q 751 -553 739 -553 Q 727 -553 718 -544 Q 709 -535 709 -523 Q 709 -511 718 -502 Q 727 -493 739 -493 Z M 658 -180 L 658 -372 L 302 -372 L 302 -180 L 658 -180 Z M 718 -120 L 242 -120 L 242 -296 L 80 -296 L 80 -542 Q 80 -587.05 110.5 -617.53 Q 141 -648 186 -648 L 774 -648 Q 819.05 -648 849.53 -617.53 Q 880 -587.05 880 -542 L 880 -296 L 718 -296 L 718 -120 Z M 820 -356 L 820 -542.21 Q 820 -562 806.78 -575 Q 793.55 -588 774 -588 L 186 -588 Q 166.45 -588 153.23 -574.78 Q 140 -561.55 140 -542 L 140 -356 L 242 -356 L 242 -432 L 718 -432 L 718 -356 L 820 -356 Z" stroke-linecap="round" />
</g>
<g transform="matrix(0.0562 0 0 0.05 26.6045 20.6404)"  >
<path style="stroke: none; stroke-width: 1; stroke-dasharray: none; stroke-linecap: butt; stroke-dashoffset: 0; stroke-linejoin: miter; stroke-miterlimit: 4; fill: rgb(31,31,31); fill-rule: nonzero; opacity: 1;"  transform=" translate(-480.5, 480)" d="M 140 -160 Q 115.25 -160 97.63 -177.63 Q 80 -195.25 80 -220 L 80 -740 Q 80 -764.75 97.63 -782.38 Q 115.25 -800 140 -800 L 611 -800 Q 625.25 -800 638 -793.63 Q 650.75 -787.25 659 -776 L 881 -480 L 660 -184 Q 651.75 -172.75 639 -166.38 Q 626.25 -160 612 -160 L 140 -160 Z M 140 -220 L 611 -220 L 806 -480 L 611 -740 L 140 -740 L 140 -220 Z M 376 -480 Z" stroke-linecap="round" />
</g>
</svg>