<?xml version="1.0" encoding="UTF-8" standalone="no" ?>
<!DOCTYPE svg PUBLIC "-//W3C//DTD SVG 1.1//EN" "http://www.w3.org/Graphics/SVG/1.1/DTD/svg11.dtd">
<svg xmlns="http://www.w3.org/2000/svg" xmlns:xlink="http://www.w3.org/1999/xlink" version="1.1" width="100" height="100" viewBox="0 0 100 100" xml:space="preserve">
<desc>Created with Fabric.js 6.5.3</desc>
<defs>
</defs>
<g transform="matrix(0.0581 0 0 0.0495 75.3219 75.9169)"  >
<path style="stroke: none; stroke-width: 1; stroke-dasharray: none; stroke-linecap: butt; stroke-dashoffset: 0; stroke-linejoin: miter; stroke-miterlimit: 4; fill: rgb(31,31,31); fill-rule: nonzero; opacity: 1;"  transform=" translate(-480.5, 480)" d="M 140 -160 Q 115.25 -160 97.63 -177.63 Q 80 -195.25 80 -220 L 80 -740 Q 80 -764.75 97.63 -782.38 Q 115.25 -800 140 -800 L 611 -800 Q 625.25 -800 638 -793.63 Q 650.75 -787.25 659 -776 L 881 -480 L 660 -184 Q 651.75 -172.75 639 -166.38 Q 626.25 -160 612 -160 L 140 -160 Z M 140 -220 L 611 -220 L 806 -480 L 611 -740 L 140 -740 L 140 -220 Z M 376 -480 Z" stroke-linecap="round" />
</g>
<g transform="matrix(0.0629 0 0 0.0629 75.6351 24.0343)"  >
<path style="stroke: none; stroke-width: 1; stroke-dasharray: none; stroke-linecap: butt; stroke-dashoffset: 0; stroke-linejoin: miter; stroke-miterlimit: 4; fill: rgb(31,31,31); fill-rule: nonzero; opacity: 1;"  transform=" translate(-475, 475)" d="M 730 -160 Q 730 -278.17 685 -382.09 Q 640 -486 563 -563 Q 486 -640 382.09 -685 Q 278.17 -730 160 -730 L 160 -790 Q 291 -790 405.44 -740.39 Q 519.87 -690.79 605.33 -605.33 Q 690.79 -519.87 740.39 -405.44 Q 790 -291 790 -160 L 730 -160 Z" stroke-linecap="round" />
</g>
<g transform="matrix(-0.0634 0 0 -0.0634 23.6708 76.3391)"  >
<path style="stroke: none; stroke-width: 1; stroke-dasharray: none; stroke-linecap: butt; stroke-dashoffset: 0; stroke-linejoin: miter; stroke-miterlimit: 4; fill: rgb(31,31,31); fill-rule: nonzero; opacity: 1;"  transform=" translate(-475, 475)" d="M 730 -160 Q 730 -278.17 685 -382.09 Q 640 -486 563 -563 Q 486 -640 382.09 -685 Q 278.17 -730 160 -730 L 160 -790 Q 291 -790 405.44 -740.39 Q 519.87 -690.79 605.33 -605.33 Q 690.79 -519.87 740.39 -405.44 Q 790 -291 790 -160 L 730 -160 Z" stroke-linecap="round" />
</g>
<g transform="matrix(0.0494 0 0 0.0494 26.3992 23.6703)"  >
<path style="stroke: none; stroke-width: 1; stroke-dasharray: none; stroke-linecap: butt; stroke-dashoffset: 0; stroke-linejoin: miter; stroke-miterlimit: 4; fill: rgb(31,31,31); fill-rule: nonzero; opacity: 1;"  transform=" translate(-480, 480)" d="M 40 -200 L 40 -760 L 125 -760 L 125 -200 L 40 -200 Z M 160 -200 L 160 -760 L 240 -760 L 240 -200 L 160 -200 Z M 280 -200 L 280 -760 L 320 -760 L 320 -200 L 280 -200 Z M 400 -200 L 400 -760 L 480 -760 L 480 -200 L 400 -200 Z M 520 -200 L 520 -760 L 640 -760 L 640 -200 L 520 -200 Z M 680 -200 L 680 -760 L 720 -760 L 720 -200 L 680 -200 Z M 800 -200 L 800 -760 L 920 -760 L 920 -200 L 800 -200 Z" stroke-linecap="round" />
</g>
</svg>